<svg width="210" height="32" viewBox="0 0 210 32" fill="none" xmlns="http://www.w3.org/2000/svg">
<path d="M93.2256 9.58423L97.5764 6.36847H83.0109V25.6315H97.5764V22.4158H87.1724V17.4975H96.0631V14.2818H87.1724V9.58423H93.2256Z" fill="#21A038"/>
<path d="M72.0079 13.8719H66.9636V9.58423H75.0345L79.3853 6.36847H62.802V25.6315H71.472C76.3271 25.6315 79.133 23.4246 79.133 19.5783C79.133 15.8897 76.6109 13.8719 72.0079 13.8719ZM71.3143 22.4158H66.9636V17.0877H71.3143C73.9626 17.0877 75.1921 17.9704 75.1921 19.7675C75.1921 21.5645 73.868 22.4158 71.3143 22.4158Z" fill="#21A038"/>
<path d="M109.368 6.36847H101.454V25.6315H105.616V20.1773H109.399C114.443 20.1773 117.596 17.5291 117.596 13.2729C117.596 9.01674 114.443 6.36847 109.368 6.36847ZM109.273 16.9616H105.584V9.58423H109.273C111.953 9.58423 113.403 10.9084 113.403 13.2729C113.403 15.6374 111.953 16.9616 109.273 16.9616Z" fill="#21A038"/>
<path d="M55.6768 21.4699C54.5734 22.069 53.3438 22.3842 52.0827 22.3842C48.331 22.3842 45.6197 19.7044 45.6197 16.0157C45.6197 12.3271 48.331 9.64728 52.0827 9.64728C53.4384 9.61575 54.7625 10.0571 55.866 10.8453L58.861 8.63841L58.6719 8.44924C56.9379 6.90442 54.6049 6.11624 51.9566 6.11624C49.0877 6.11624 46.4709 7.09358 44.5793 8.8591C42.6876 10.6877 41.6157 13.2414 41.6788 15.8896C41.6473 18.5694 42.6876 21.1547 44.5793 23.0463C46.5655 24.9064 49.2138 25.9468 51.9251 25.8837C54.9202 25.8837 57.5369 24.8433 59.3024 22.9517L56.6226 20.9655L55.6768 21.4699Z" fill="#21A038"/>
<path d="M167.63 6.39999V25.6631H171.791V17.7813H180.65V25.6631H184.812V6.39999H180.65V14.3133H171.791V6.39999H167.63ZM160.473 25.6631H164.855L156.721 6.39999H152.497L144.205 25.6631H148.398L150.069 21.7852H158.896L160.473 25.6631ZM151.33 18.5695L154.546 10.8453L157.572 18.5695H151.33ZM194.144 17.8759H196.729L203.097 25.6315H208.457L199.945 15.669L207.385 6.36847H202.625L196.445 14.6286H194.144V6.36847H189.982V25.6315H194.144V17.8759ZM130.459 13.9034V9.61576H141.336V6.39999H126.297V25.6631H134.967C139.823 25.6631 142.629 23.4562 142.629 19.6098C142.629 15.9212 140.106 13.9034 135.503 13.9034H130.459V13.9034ZM130.459 22.4473V17.1192H134.81C137.458 17.1192 138.688 18.002 138.688 19.799C138.688 21.5961 137.395 22.4788 134.81 22.4788H130.459V22.4473Z" fill="#21A038"/>
<path d="M28.6582 6.24237C29.4148 7.21971 30.0454 8.29163 30.5813 9.42661L16.0158 20.1773L9.89954 16.331V11.7281L15.9843 15.5429L28.6582 6.24237Z" fill="#21A038"/>
<path d="M3.68867 16.0158C3.68867 15.7951 3.68867 15.6059 3.7202 15.3852L0.0315266 15.1961C0.0315266 15.4483 0 15.732 0 15.9842C0 20.398 1.79704 24.402 4.69754 27.3025L7.31429 24.6857C5.07586 22.4788 3.68867 19.4207 3.68867 16.0158Z" fill="url(#paint0_linear_14_15940)"/>
<path d="M15.9842 3.72021C16.2049 3.72021 16.3941 3.72021 16.6148 3.75174L16.8039 0.0630665C16.5517 0.0630665 16.268 0.0315399 16.0157 0.0315399C11.6019 0.0315399 7.598 1.82858 4.69751 4.72908L7.31426 7.34583C9.52116 5.1074 12.6108 3.72021 15.9842 3.72021Z" fill="url(#paint1_linear_14_15940)"/>
<path d="M15.9843 28.3113C15.7636 28.3113 15.5744 28.3113 15.3537 28.2798L15.1646 31.9685C15.4168 31.9685 15.7005 32 15.9527 32C20.3665 32 24.3705 30.203 27.271 27.3025L24.6542 24.6857C22.4473 26.9557 19.3892 28.3113 15.9843 28.3113Z" fill="url(#paint2_linear_14_15940)"/>
<path d="M22.9202 5.86404L26.0414 3.56256C23.2985 1.35566 19.799 0 15.9843 0V3.68867C18.5695 3.7202 20.9655 4.50837 22.9202 5.86404Z" fill="url(#paint3_linear_14_15940)"/>
<path d="M32 16.0158C32 15.0384 31.9055 14.0926 31.7478 13.1468L28.3114 15.7005C28.3114 15.7951 28.3114 15.9212 28.3114 16.0158C28.3114 19.6414 26.735 22.8887 24.2444 25.1271L26.735 27.8699C29.9508 24.9695 32 20.7133 32 16.0158Z" fill="#21A038"/>
<path d="M15.9842 28.3113C12.3586 28.3113 9.11129 26.735 6.87286 24.2444L4.13 26.735C7.06202 29.9823 11.2867 32 15.9842 32V28.3113Z" fill="url(#paint4_linear_14_15940)"/>
<path d="M7.75567 6.90445L5.26502 4.16159C2.01773 7.09361 0 11.3182 0 16.0158H3.68867C3.68867 12.4217 5.26502 9.14287 7.75567 6.90445Z" fill="url(#paint5_linear_14_15940)"/>
<defs>
<linearGradient id="paint0_linear_14_15940" x1="5.4563" y1="26.8537" x2="1.41721" y2="15.1783" gradientUnits="userSpaceOnUse">
<stop offset="0.1444" stop-color="#F2E913"/>
<stop offset="0.3037" stop-color="#E7E518"/>
<stop offset="0.5823" stop-color="#CADB26"/>
<stop offset="0.891" stop-color="#A3CD39"/>
</linearGradient>
<linearGradient id="paint1_linear_14_15940" x1="5.74897" y1="5.3727" x2="16.152" y2="1.40829" gradientUnits="userSpaceOnUse">
<stop offset="0.0592" stop-color="#0FA8E0"/>
<stop offset="0.5385" stop-color="#0099F9"/>
<stop offset="0.9234" stop-color="#0291EB"/>
</linearGradient>
<linearGradient id="paint2_linear_14_15940" x1="14.948" y1="29.7462" x2="26.712" y2="27.0874" gradientUnits="userSpaceOnUse">
<stop offset="0.1226" stop-color="#A3CD39"/>
<stop offset="0.2846" stop-color="#86C339"/>
<stop offset="0.8693" stop-color="#21A038"/>
</linearGradient>
<linearGradient id="paint3_linear_14_15940" x1="15.2264" y1="1.24431" x2="25.2844" y2="4.34765" gradientUnits="userSpaceOnUse">
<stop offset="0.0566" stop-color="#0291EB"/>
<stop offset="0.79" stop-color="#0C8ACB"/>
</linearGradient>
<linearGradient id="paint4_linear_14_15940" x1="5.0679" y1="26.2752" x2="16.0161" y2="30.3658" gradientUnits="userSpaceOnUse">
<stop offset="0.1324" stop-color="#F2E913"/>
<stop offset="0.2977" stop-color="#EBE716"/>
<stop offset="0.5306" stop-color="#D9E01F"/>
<stop offset="0.8023" stop-color="#BBD62D"/>
<stop offset="0.9829" stop-color="#A3CD39"/>
</linearGradient>
<linearGradient id="paint5_linear_14_15940" x1="1.38357" y1="16.4613" x2="5.77825" y2="5.02912" gradientUnits="userSpaceOnUse">
<stop offset="0.0698" stop-color="#A3CD39"/>
<stop offset="0.2599" stop-color="#81C55F"/>
<stop offset="0.9216" stop-color="#0FA8E0"/>
</linearGradient>
</defs>
</svg>
